<?xml version="1.0" encoding="UTF-8"?><svg xmlns="http://www.w3.org/2000/svg" xmlns:xlink="http://www.w3.org/1999/xlink" fill-opacity="1" color-rendering="auto" color-interpolation="auto" stroke="black" text-rendering="auto" stroke-linecap="square" width="539" stroke-miterlimit="10" stroke-opacity="1" shape-rendering="auto" fill="black" stroke-dasharray="none" font-weight="normal" stroke-width="1" height="195" font-family="'Dialog'" font-style="normal" stroke-linejoin="miter" font-size="12" stroke-dashoffset="0" image-rendering="auto">
  <!--Generated by ySVG 2.5-->
  <defs id="genericDefs"/>
  <g>
    <defs id="defs1">
      <clipPath clipPathUnits="userSpaceOnUse" id="clipPath1">
        <path d="M0 0 L539 0 L539 195 L0 195 L0 0 Z"/>
      </clipPath>
      <clipPath clipPathUnits="userSpaceOnUse" id="clipPath2">
        <path d="M126 108 L665 108 L665 303 L126 303 L126 108 Z"/>
      </clipPath>
    </defs>
    <g fill="white" text-rendering="geometricPrecision" shape-rendering="geometricPrecision" transform="translate(-126,-108)" stroke="white">
      <rect x="126" width="539" height="195" y="108" clip-path="url(#clipPath2)" stroke="none"/>
    </g>
    <g text-rendering="geometricPrecision" stroke-miterlimit="1.45" shape-rendering="geometricPrecision" transform="matrix(1,0,0,1,-126,-108)" stroke-linecap="butt">
      <path fill="none" d="M141 173 L221 173 L221 213 L141 213 Z" clip-path="url(#clipPath2)"/>
      <text x="161.207" y="196.9375" clip-path="url(#clipPath2)" font-family="'Consolas'" stroke="none" font-weight="bold" xml:space="preserve">OwnPtr</text>
    </g>
    <g text-rendering="geometricPrecision" stroke-miterlimit="1.45" shape-rendering="geometricPrecision" transform="matrix(1,0,0,1,-126,-108)" stroke-linecap="butt">
      <path fill="none" d="M570 173 L650 173 L650 213 L570 213 Z" clip-path="url(#clipPath2)"/>
      <text x="577.0117" y="196.9375" clip-path="url(#clipPath2)" font-family="'Consolas'" stroke="none" font-weight="bold" xml:space="preserve">PassOwnPtr</text>
    </g>
    <g text-rendering="geometricPrecision" stroke-miterlimit="1.45" shape-rendering="geometricPrecision" transform="matrix(1,0,0,1,-126,-108)" stroke-linecap="butt">
      <path fill="none" d="M364 173 L444 173 L444 213 L364 213 Z" clip-path="url(#clipPath2)"/>
      <text x="380.9082" y="196.9375" clip-path="url(#clipPath2)" font-family="'Consolas'" stroke="none" font-weight="bold" xml:space="preserve">Raw Ptr</text>
    </g>
    <g stroke-linecap="butt" transform="matrix(1,0,0,1,-126,-108)" text-rendering="geometricPrecision" font-family="'Consolas'" shape-rendering="geometricPrecision" font-weight="bold" stroke-miterlimit="1.45">
      <text x="375.4082" xml:space="preserve" y="276.9375" clip-path="url(#clipPath2)" stroke="none">release</text>
    </g>
    <g stroke-linecap="butt" transform="matrix(1,0,0,1,-126,-108)" text-rendering="geometricPrecision" font-family="'Consolas'" shape-rendering="geometricPrecision" font-weight="bold" stroke-miterlimit="1.45">
      <text x="472.5879" xml:space="preserve" y="216.9375" clip-path="url(#clipPath2)" stroke="none">leakPtr/get</text>
      <text x="276.4785" xml:space="preserve" y="216.9375" clip-path="url(#clipPath2)" stroke="none">get</text>
      <path fill="none" d="M181 213.0098 L181 262 L610 262 L610 220.9863" clip-path="url(#clipPath2)"/>
      <path d="M610 212.9863 L605 224.9863 L610 221.9863 L615 224.9863 Z" clip-path="url(#clipPath2)" stroke="none"/>
      <path fill="none" d="M610 173.0049 L610 123 L181 123 L181 165.0049" clip-path="url(#clipPath2)"/>
      <path d="M181 173.0049 L186 161.0049 L181 164.0049 L176 161.0049 Z" clip-path="url(#clipPath2)" stroke="none"/>
      <path fill="none" d="M220.9886 201 L356.011 201" clip-path="url(#clipPath2)"/>
      <path d="M364.011 201 L352.011 196 L355.011 201 L352.011 206 Z" clip-path="url(#clipPath2)" stroke="none"/>
      <path fill="none" d="M569.9636 201 L452.0198 201" clip-path="url(#clipPath2)"/>
      <path d="M444.0198 201 L456.0198 206 L453.0198 201 L456.0198 196 Z" clip-path="url(#clipPath2)" stroke="none"/>
      <path fill="none" d="M364.0225 186 L229.0232 186" clip-path="url(#clipPath2)"/>
      <path d="M221.0232 186 L233.0232 191 L230.0232 186 L233.0232 181 Z" clip-path="url(#clipPath2)" stroke="none"/>
      <path fill="none" d="M444.0081 186 L562.0015 186" clip-path="url(#clipPath2)"/>
      <path d="M570.0015 186 L558.0015 181 L561.0015 186 L558.0015 191 Z" clip-path="url(#clipPath2)" stroke="none"/>
    </g>
  </g>
</svg>
